<?xml version="1.0" standalone="no"?><!-- Generator: Gravit.io --><svg xmlns="http://www.w3.org/2000/svg" xmlns:xlink="http://www.w3.org/1999/xlink" style="isolation:isolate" viewBox="84.554 91.808 343.6 360.682" width="343.6" height="360.682"><g id="null"><rect x="151.251" y="91.808" width="209.778" height="86.869" transform="matrix(1,0,0,1,0,0)" fill="rgb(153,23,24)"/><rect x="255.72" y="91.808" width="105.309" height="86.869" transform="matrix(1,0,0,1,0,0)" fill="rgb(120,15,19)"/><path d=" M 234.476 328.923 L 313.975 371.875 L 428.154 160.542 L 361.458 91.808 L 234.476 328.923 Z " fill="rgb(187,22,27)"/><path d=" M 278.232 328.923 L 198.733 371.875 L 84.554 160.542 L 151.249 91.808 L 278.232 328.923 Z " fill="rgb(226,95,63)"/><path d=" M 151.251 347.597 C 151.251 289.71 198.248 242.713 256.135 242.713 C 314.022 242.713 361.019 289.71 361.019 347.597 C 361.019 405.484 314.022 452.481 256.135 452.481 C 198.248 452.481 151.251 405.484 151.251 347.597 Z " fill="rgb(246,212,51)"/><g id="null"><path d=" M 256.139 242.712 C 256.093 242.712 256.046 242.714 256 242.714 L 256 452.488 C 256.046 452.488 256.093 452.49 256.139 452.49 C 314.068 452.49 361.028 405.529 361.028 347.601 C 361.028 289.673 314.067 242.712 256.139 242.712 Z " fill="rgb(223,135,30)"/><path d=" M 256 287.709 L 276.259 324.949 L 317.936 332.709 L 288.78 363.484 L 294.279 405.52 L 256 387.3 L 217.721 405.52 L 223.22 363.484 L 194.063 332.709 L 235.741 324.949 L 256 287.709 Z " fill="rgb(223,135,30)"/></g><path d=" M 294.279 405.519 L 288.78 363.484 L 317.936 332.708 L 276.259 324.949 L 256 287.709 L 256 387.3 L 294.279 405.519 Z " fill="rgb(161,97,37)"/></g></svg>