<?xml version="1.0" standalone="no"?><!-- Generator: Gravit.io --><svg xmlns="http://www.w3.org/2000/svg" xmlns:xlink="http://www.w3.org/1999/xlink" style="isolation:isolate" viewBox="166.49 319.89 81.019 96.221" width="81.019" height="96.221"><g id="noun_1013441_cc"><path d=" M 228.233 391.88 C 226.406 397.106 224.248 402.209 221.773 407.16 C 220.643 409.36 219.593 410.74 219.223 409.32 C 219.032 407.986 219.107 406.626 219.443 405.32 Q 221.273 399.24 222.993 393.11 C 221.226 393.202 219.454 393.155 217.693 392.97 C 217.253 392.97 216.813 392.86 216.373 392.8 C 212.803 393.3 209.263 392.63 205.723 392.18 C 204.07 391.979 202.578 391.089 201.613 389.73 C 201.191 389.21 201.036 388.522 201.193 387.87 C 201.283 387.49 201.583 386.96 201.773 386.98 C 206.043 387.35 210.353 386.34 214.573 388.09 C 216.923 387.89 219.283 387.58 221.633 387.52 C 222.755 387.521 223.874 387.631 224.973 387.85 C 225.519 387.349 226.232 387.068 226.973 387.06 L 231.973 387.06 C 232.036 387.054 232.097 387.037 232.153 387.01 C 232.271 386.955 232.369 386.864 232.433 386.75 C 232.468 386.699 232.492 386.641 232.503 386.58 C 232.503 386.58 232.503 386.52 232.503 386.49 C 232.503 386.49 232.503 386.49 232.503 386.26 L 232.503 376.6 C 232.513 376.544 232.513 376.487 232.503 376.43 C 232.43 376.203 232.231 376.038 231.993 376.01 L 223.463 376.01 C 211.903 375.93 200.393 375.67 188.983 375.01 L 184.763 375.01 L 182.643 375.01 L 181.583 375.01 L 181.223 375.01 L 181.003 375.01 C 180.419 375.168 179.981 375.653 179.883 376.25 C 179.883 376.35 179.883 377.32 179.883 377.97 L 179.883 380.09 L 179.993 384.41 L 179.993 386.41 C 180.009 386.667 180.099 386.914 180.253 387.12 C 180.406 387.325 180.615 387.481 180.853 387.57 C 181.123 387.66 181.143 387.65 182.053 387.64 L 186.283 387.64 C 187.357 387.628 188.309 388.33 188.613 389.36 L 188.613 389.36 L 192.443 402.36 L 194.443 409.45 L 194.513 409.69 C 194.534 409.742 194.557 409.792 194.583 409.84 C 194.631 409.941 194.691 410.035 194.763 410.12 C 194.908 410.298 195.093 410.439 195.303 410.53 C 195.409 410.578 195.519 410.612 195.633 410.63 L 195.803 410.63 L 196.223 410.63 L 198.073 410.63 L 212.813 411 C 214.173 411 215.433 411.12 216.563 411.25 L 217.383 411.35 C 217.583 411.35 217.703 411.42 217.873 411.43 C 218.175 411.472 218.481 411.472 218.783 411.43 C 219.983 411.22 220.833 410.43 221.493 410.43 C 221.853 410.43 222.113 410.73 222.103 411.37 C 222.059 412.381 221.612 413.331 220.863 414.01 C 220.321 414.498 219.685 414.869 218.993 415.1 C 218.603 415.246 218.197 415.346 217.783 415.4 L 216.783 415.5 C 215.623 415.61 214.353 415.69 213.023 415.73 Q 207.623 415.91 202.213 416.02 L 196.803 416.11 L 195.803 416.11 L 195.203 416.11 C 192.756 415.907 190.599 414.423 189.533 412.21 C 189.453 412.02 189.363 411.85 189.293 411.65 C 189.223 411.45 189.133 411.2 189.123 411.14 L 188.993 410.49 L 188.613 409.19 L 187.853 406.59 L 186.353 401.37 L 183.993 393.09 L 183.073 393.09 L 181.453 393.09 L 181.173 393.09 L 180.803 393.09 C 180.563 393.09 180.313 393.03 180.073 392.99 C 179.592 392.892 179.122 392.741 178.673 392.54 C 176.854 391.72 175.501 390.121 174.993 388.19 C 174.865 387.721 174.791 387.237 174.773 386.75 L 174.773 385.75 L 174.773 384.13 L 174.853 379.69 L 174.853 377.47 L 174.853 376.64 L 174.853 376.2 C 174.897 375.552 175.042 374.914 175.283 374.31 C 175.74 373.071 176.568 372.003 177.653 371.25 C 178.201 370.877 178.801 370.587 179.433 370.39 C 180.05 370.208 180.69 370.114 181.333 370.11 L 185.813 370.05 L 194.813 370.05 Q 203.813 370.05 212.703 370.18 L 230.563 370.49 L 231.683 370.49 L 231.993 370.49 L 232.453 370.49 C 235.387 370.737 237.708 373.075 237.933 376.01 C 237.956 376.464 237.956 376.917 237.933 377.37 L 237.933 378.49 L 237.843 382.95 L 237.843 385.18 L 237.843 386.3 L 237.843 386.66 C 237.843 386.81 237.843 386.95 237.843 387.1 C 237.805 387.391 237.745 387.679 237.663 387.96 C 237.27 389.214 236.453 390.292 235.353 391.01 C 234.83 391.378 234.248 391.655 233.633 391.83 C 233.329 391.915 233.018 391.976 232.703 392.01 C 232.547 392.02 232.39 392.02 232.233 392.01 L 231.833 392.01 C 230.623 392.01 229.423 391.95 228.233 391.88 Z  M 208.643 349.53 C 209.415 351.487 211.531 352.554 213.563 352.01 C 213.88 351.924 214.186 351.8 214.473 351.64 L 214.753 351.48 L 215.213 351.21 L 216.163 350.69 C 217.465 350.01 218.8 349.396 220.163 348.85 C 221.54 348.335 222.877 347.72 224.163 347.01 C 225.163 346.4 225.723 345.78 225.423 345.13 C 225.103 343.92 222.193 343.42 218.493 344.53 C 216.813 345.033 215.167 345.641 213.563 346.35 L 213.193 346.52 C 212.864 345.235 212.762 343.901 212.893 342.58 C 213.043 341.298 213.444 340.058 214.073 338.93 C 215.215 337.098 216.952 335.714 218.993 335.01 C 221.28 334.173 223.681 333.691 226.113 333.58 C 231.298 333.338 236.494 333.704 241.593 334.67 L 242.073 334.8 L 242.073 334.8 L 241.793 335.64 L 241.253 337.33 C 240.503 339.56 239.743 341.79 238.873 343.94 C 238.037 346.088 237.076 348.185 235.993 350.22 C 234.97 352.112 233.725 353.874 232.283 355.47 C 229.443 358.47 226.043 359.27 222.373 357.64 C 221.455 357.236 220.583 356.733 219.773 356.14 C 219.362 355.829 218.968 355.495 218.593 355.14 C 217.57 354.214 216.234 353.71 214.853 353.73 C 213.404 353.758 212.03 354.38 211.053 355.45 C 210.816 355.716 210.605 356.004 210.423 356.31 L 210.153 356.78 C 209.983 357.08 209.823 357.39 209.663 357.7 C 209.041 358.934 208.516 360.215 208.093 361.53 C 207.825 362.554 207.888 363.635 208.273 364.62 C 208.863 365.62 209.633 364.54 210.513 363.06 C 211.273 361.825 212.101 360.633 212.993 359.49 C 213.433 358.95 213.993 358.17 214.263 358.12 C 214.611 357.979 215.007 358.024 215.313 358.24 C 215.382 358.288 215.442 358.345 215.493 358.41 C 215.519 358.439 215.543 358.469 215.563 358.5 L 215.753 358.71 Q 216.203 359.19 216.693 359.64 C 217.359 360.253 218.075 360.808 218.833 361.3 C 220.395 362.348 222.149 363.075 223.993 363.44 C 226.409 363.912 228.91 363.662 231.183 362.72 C 233.358 361.773 235.305 360.372 236.893 358.61 C 239.768 355.335 242.033 351.573 243.583 347.5 C 245.123 343.616 246.369 339.621 247.313 335.55 L 247.423 335.1 C 247.875 332.913 246.513 330.76 244.343 330.23 L 244.143 330.23 L 244.043 330.23 L 243.853 330.23 L 243.473 330.16 L 240.413 329.63 C 239.413 329.44 238.343 329.35 237.313 329.21 C 236.283 329.07 235.243 328.95 234.183 328.91 C 233.123 328.87 232.113 328.65 231.063 328.57 L 227.893 328.4 C 224.372 328.301 220.859 328.781 217.493 329.82 L 216.833 330.03 L 216.183 330.32 L 214.883 330.91 C 214.453 331.14 214.033 331.42 213.623 331.67 L 212.993 332.01 L 212.403 332.49 C 210.771 333.77 209.479 335.432 208.643 337.33 C 207.827 339.17 207.398 341.158 207.383 343.17 C 207.377 345.108 207.716 347.031 208.383 348.85 C 208.463 349.08 208.543 349.27 208.643 349.53 Z  M 167.223 329.58 C 167.719 332.031 168.353 334.452 169.123 336.83 C 170.693 341.61 172.783 346.45 176.653 350.63 C 178.72 352.882 181.417 354.457 184.393 355.15 C 187.434 355.76 190.589 355.374 193.393 354.05 C 194.702 353.467 195.946 352.746 197.103 351.9 C 197.453 351.65 197.773 351.36 198.103 351.09 L 198.223 351.33 C 198.674 352.277 199.042 353.261 199.323 354.27 C 199.623 355.06 200.106 355.766 200.733 356.33 C 201.583 356.97 202.113 355.89 202.163 354.18 C 202.197 352.702 202.015 351.226 201.623 349.8 C 201.523 349.43 201.403 349.05 201.273 348.67 C 201.123 348.18 200.859 347.731 200.503 347.36 C 199.62 346.489 198.34 346.154 197.143 346.48 C 196.832 346.56 196.533 346.681 196.253 346.84 C 196.111 346.917 195.974 347.004 195.843 347.1 L 195.573 347.29 Q 195.113 347.6 194.643 347.89 C 194.017 348.261 193.369 348.595 192.703 348.89 C 191.418 349.519 190.041 349.937 188.623 350.13 C 187.047 350.37 185.434 350.134 183.993 349.45 C 182.502 348.662 181.194 347.568 180.153 346.24 C 177.883 343.274 176.125 339.948 174.953 336.4 C 173.8 333.146 172.812 329.835 171.993 326.48 L 173.863 326.11 C 174.863 325.89 175.803 325.78 176.773 325.61 C 177.743 325.44 178.713 325.27 179.673 325.18 C 180.633 325.09 181.633 325.01 182.583 325.01 L 185.433 325.01 C 188.285 325.051 191.113 325.523 193.823 326.41 L 194.293 326.57 L 194.723 326.78 L 195.583 327.18 C 195.853 327.33 196.093 327.51 196.353 327.67 L 196.733 327.91 L 197.053 328.19 C 197.924 328.879 198.611 329.772 199.053 330.79 C 199.532 331.859 199.8 333.01 199.843 334.18 C 199.862 334.979 199.791 335.777 199.633 336.56 L 199.533 336.56 C 197.978 335.891 196.382 335.324 194.753 334.86 C 193.217 334.359 191.609 334.116 189.993 334.14 C 188.723 334.24 187.933 334.63 187.893 335.34 C 188.043 336.65 190.213 337.94 193.513 339.22 C 194.983 339.799 196.416 340.466 197.803 341.22 C 198.143 341.4 198.483 341.6 198.803 341.79 L 199.043 341.94 L 199.103 341.94 L 199.273 342.03 C 199.405 342.1 199.542 342.161 199.683 342.21 C 200.249 342.419 200.859 342.478 201.453 342.38 C 202.667 342.179 203.691 341.366 204.163 340.23 C 204.373 339.73 204.523 339.32 204.673 338.85 C 205.29 336.969 205.534 334.985 205.393 333.01 C 205.232 330.966 204.614 328.984 203.583 327.21 C 202.714 325.785 201.581 324.54 200.243 323.54 C 199.599 323.079 198.932 322.652 198.243 322.26 C 197.533 321.95 196.823 321.6 196.103 321.34 C 193.325 320.401 190.416 319.912 187.483 319.89 C 181.934 319.862 176.4 320.479 170.993 321.73 L 170.073 321.82 L 169.613 321.82 L 169.383 321.82 L 169.233 321.82 L 168.933 322.01 C 167.266 322.52 166.24 324.193 166.543 325.91 L 167.223 329.58 Z " fill="rgb(0,0,0)"/></g></svg>